<?xml version="1.0" standalone="no"?>
<!DOCTYPE svg PUBLIC "-//W3C//DTD SVG 20010904//EN"
 "http://www.w3.org/TR/2001/REC-SVG-20010904/DTD/svg10.dtd">
<svg version="1.0" xmlns="http://www.w3.org/2000/svg"
 width="300.000000pt" height="148.000000pt" viewBox="0 0 300.000000 148.000000"
 preserveAspectRatio="xMidYMid meet">
<metadata>
Created by potrace 1.10, written by Peter Selinger 2001-2011
</metadata>
<g transform="translate(0.000000,148.000000) scale(0.100000,-0.100000)"
fill="#000000" stroke="none">
<path d="M2155 1469 c-33 -5 -73 -14 -90 -21 -23 -10 -212 -14 -765 -18 l-735
-5 -80 -28 c-97 -34 -150 -64 -232 -129 -245 -198 -317 -562 -166 -851 26 -50
64 -98 123 -158 72 -73 101 -94 180 -132 159 -77 163 -77 939 -77 564 0 686
-2 727 -15 169 -50 376 -30 538 52 134 68 256 192 322 328 56 117 77 204 76
330 -2 366 -271 673 -636 724 -87 12 -115 12 -201 0z m-819 -147 l462 -2 -58
-59 c-71 -73 -113 -133 -150 -215 -128 -283 -67 -613 154 -828 l59 -58 -591 0
c-398 0 -608 4 -644 11 -272 58 -471 319 -455 599 13 242 170 447 402 525 58
20 155 30 275 30 47 -1 293 -2 546 -3z m894 -226 c0 -3 -9 -20 -20 -38 -75
-128 -56 -304 46 -417 54 -60 152 -112 224 -119 28 -2 53 -8 56 -13 8 -14 -93
-86 -153 -109 -78 -29 -205 -25 -275 9 -142 68 -231 222 -214 370 14 123 115
256 229 300 47 18 107 27 107 17z m90 -138 c0 -16 41 -58 57 -58 22 0 14 -14
-18 -33 -17 -9 -33 -26 -36 -37 -7 -27 -17 -25 -31 5 -7 14 -23 30 -37 37 -30
14 -32 24 -5 31 11 3 28 19 37 36 18 32 33 40 33 19z m220 -133 c0 -13 38 -49
76 -71 17 -10 16 -12 -11 -25 -16 -8 -40 -30 -53 -49 -30 -45 -35 -46 -49 -10
-6 16 -27 39 -47 51 -20 11 -36 22 -36 24 0 2 15 12 34 23 19 11 42 35 51 52
15 30 35 33 35 5z"/>
</g>
</svg>
