<?xml version="1.0" standalone="no"?>
<!DOCTYPE svg PUBLIC "-//W3C//DTD SVG 20010904//EN"
 "http://www.w3.org/TR/2001/REC-SVG-20010904/DTD/svg10.dtd">
<svg version="1.0" xmlns="http://www.w3.org/2000/svg"
 width="300.000000pt" height="148.000000pt" viewBox="0 0 300.000000 148.000000"
 preserveAspectRatio="xMidYMid meet">
<metadata>
Created by potrace 1.10, written by Peter Selinger 2001-2011
</metadata>
<g transform="translate(0.000000,148.000000) scale(0.100000,-0.100000)"
fill="#000000" stroke="none">
<path d="M628 1470 c-139 -25 -239 -70 -347 -156 -271 -217 -353 -603 -191
-912 56 -109 116 -180 208 -249 125 -95 294 -153 442 -153 58 0 187 22 233 39
19 7 258 11 720 11 655 0 696 1 774 20 246 59 445 254 510 500 23 87 23 253 0
340 -59 225 -229 409 -447 485 l-85 30 -735 6 c-661 5 -741 7 -790 23 -63 20
-223 29 -292 16z m1832 -163 c202 -61 363 -225 414 -423 25 -96 21 -227 -9
-322 -57 -181 -188 -314 -371 -379 l-79 -28 -607 -3 c-335 -2 -608 -1 -608 2
0 3 21 25 46 48 89 82 164 206 205 338 19 60 23 98 23 195 0 68 -5 144 -13
175 -32 131 -107 264 -200 355 -28 27 -51 53 -51 58 0 4 269 7 598 4 518 -3
604 -6 652 -20z m-1686 -179 c10 -40 20 -77 22 -83 2 -6 -18 -10 -51 -10 -58
0 -61 3 -45 51 5 16 14 48 20 72 16 62 34 53 54 -30z m-272 -99 l70 -41 -38
-39 c-34 -35 -39 -37 -49 -21 -20 30 -75 129 -75 136 0 13 25 4 92 -35z m568
29 c0 -14 -68 -136 -78 -140 -4 -2 -24 13 -44 33 l-37 37 67 40 c71 42 92 49
92 30z m-219 -99 c147 -73 183 -271 70 -386 -53 -56 -103 -77 -181 -77 -249 1
-332 323 -119 458 59 37 162 39 230 5z m-401 -219 c0 -40 -3 -50 -16 -50 -30
0 -154 41 -154 50 0 5 26 17 58 25 31 9 62 18 67 20 37 13 45 5 45 -45z m682
29 c43 -12 78 -25 78 -29 0 -8 -78 -34 -140 -46 l-30 -6 0 51 c0 28 3 51 7 51
4 0 42 -9 85 -21z m-562 -279 c0 -10 -149 -84 -156 -78 -3 4 13 41 37 82 l43
76 38 -37 c21 -20 38 -40 38 -43z m460 11 c60 -100 52 -111 -41 -55 l-76 45
36 38 c20 21 37 39 38 40 1 0 21 -30 43 -68z m-237 -81 c-21 -87 -41 -145 -49
-145 -10 0 -38 79 -49 135 l-6 35 55 0 c54 0 55 -1 49 -25z"/>
</g>
</svg>
