<?xml version="1.0" ?><svg data-name="Layer 1" id="Layer_1" viewBox="0 0 32 32" xmlns="http://www.w3.org/2000/svg"><path d="M27,15a1,1,0,0,1-1-1A10,10,0,0,0,6,14a1,1,0,0,1-2,0,12,12,0,0,1,24,0A1,1,0,0,1,27,15Z"/><path d="M16,20a6,6,0,1,1,6-6A6,6,0,0,1,16,20Zm0-10a4,4,0,1,0,4,4A4,4,0,0,0,16,10Z"/><path d="M16,30a1,1,0,0,1-.71-.29l-8-8A11.81,11.81,0,0,1,4,14a1,1,0,0,1,2,0,9.91,9.91,0,0,0,2.71,6.29l8,8a1,1,0,0,1,0,1.42A1,1,0,0,1,16,30ZM6,14H6Z"/><path d="M16,30a1,1,0,0,1-.71-.29,1,1,0,0,1,0-1.42l8-8A9.87,9.87,0,0,0,26,14a1,1,0,0,1,1-1h0a1,1,0,0,1,1,1,11.81,11.81,0,0,1-3.29,7.71l-8,8A1,1,0,0,1,16,30Z"/></svg>