<?xml version="1.0" ?><svg data-name="Layer 6" id="Layer_6" viewBox="0 0 50 50" xmlns="http://www.w3.org/2000/svg"><defs><style>.cls-1{fill:#010101;}</style></defs><title/><path class="cls-1" d="M47.4,21.7L28.3,2.6a2,2,0,0,0-3.3.6c-1.6,3.7-1.2,8.4.6,12.5L19.2,22C14.7,19.2,8.5,17.6,3,20.7a2,2,0,0,0-.4,3.2L13,34.2,4.1,43.1a2,2,0,1,0,2.8,2.8L15.8,37,26.2,47.4a2,2,0,0,0,1.4.6H28a2,2,0,0,0,1.5-1.2c2.4-5.4,2.1-10.8-.7-15.3l6.6-6.6A17.5,17.5,0,0,0,41.5,26a14,14,0,0,0,5.3-1A2,2,0,0,0,47.4,21.7ZM24.7,29.8a2,2,0,0,0-.2,2.6,11.3,11.3,0,0,1,2.2,9.8L7.6,23.2c3.8-.7,7.8.9,10.7,3h0.2L21,27.8,22,28a2,2,0,0,0,1-3.8H22.8l4.9-4.9,1.5,1.7a16.9,16.9,0,0,0,2.5,2ZM32,18.1A13.9,13.9,0,0,1,28,8L42,22A13.8,13.8,0,0,1,32,18.1Z"/></svg>