<svg version="1.1" id="Layer_1" xmlns="http://www.w3.org/2000/svg"
	xmlns:xlink="http://www.w3.org/1999/xlink" x="0px" y="0px"
	width="100%" viewBox="0 0 448 448" enable-background="new 0 0 448 448" xml:space="preserve">
<path fill="#000000" opacity="1.000000" stroke="none" 
	d="
M178.980240,106.935036 
	C178.736298,112.156761 181.473038,118.088036 174.998764,121.715813 
	C176.697876,122.948921 178.248779,121.106445 179.745743,122.572937 
	C181.813385,128.856964 181.624268,136.032013 184.833282,143.053665 
	C187.994354,150.043533 196.622803,152.779694 206.041718,150.187698 
	C198.809082,148.004974 191.105530,147.772827 184.976379,143.009979 
	C184.883789,137.269012 187.437973,133.839508 193.693359,131.143051 
	C197.270233,129.601212 201.159958,129.599442 205.134613,128.713989 
	C198.532440,122.282631 197.575958,113.766510 196.070633,105.520775 
	C194.660492,97.796417 194.005447,89.999184 195.431183,82.175613 
	C197.077621,73.140869 201.629761,68.823708 210.659485,67.678680 
	C212.637009,67.427917 214.609680,67.138840 216.524506,66.592400 
	C207.995041,65.837471 200.315903,68.815132 192.732956,72.228462 
	C189.699051,73.594124 186.676651,74.991173 183.598236,76.249680 
	C181.995682,76.904823 180.406677,76.992599 179.071045,75.409096 
	C175.679642,71.388275 175.997574,56.173042 179.655930,51.712811 
	C182.200089,52.628716 180.710373,55.115551 181.571381,56.747040 
	C182.508484,54.814003 182.845032,52.441994 185.508026,52.046211 
	C190.946777,66.476921 202.772888,62.259850 213.280685,61.445515 
	C216.117142,61.225697 219.272812,61.502487 222.116760,59.454235 
	C218.252899,53.264050 210.825073,53.484802 205.322205,49.765995 
	C209.715515,45.898167 214.755264,47.874687 219.626633,47.381657 
	C218.434738,42.222794 213.274872,43.209732 210.788116,40.629528 
	C219.092697,37.236523 231.095993,43.062046 233.429565,51.740955 
	C236.064545,61.540863 237.603073,71.573326 239.290115,81.567894 
	C240.285095,87.462334 241.478363,93.030525 245.523727,98.014374 
	C256.884949,112.011208 255.076279,127.283386 248.766907,142.753159 
	C247.132095,146.761490 245.644608,150.832047 244.172836,154.904160 
	C242.653107,159.109009 241.082565,163.189941 243.040024,167.893677 
	C243.855698,169.853729 243.578781,172.638992 242.912048,174.771881 
	C241.287857,179.967834 242.128418,184.883972 243.352036,189.957367 
	C254.039566,234.270370 264.644104,278.603363 275.281616,322.928467 
	C277.958893,334.084290 280.688019,345.227783 283.343750,356.388702 
	C283.980621,359.065277 284.986511,360.687775 288.272095,360.807678 
	C294.487427,361.034454 295.640106,362.930573 294.223480,368.946289 
	C307.665466,385.218964 321.053253,401.426025 335.039246,418.357208 
	C331.786255,418.343903 330.792419,416.633270 329.554199,415.505829 
	C315.019592,402.271912 300.469666,389.053406 286.086090,375.656555 
	C284.096130,373.803101 282.140411,374.364410 280.081940,374.289459 
	C277.695679,374.202515 275.212738,374.219849 274.128021,371.607849 
	C272.981506,368.847046 274.369324,366.503967 276.516144,365.106506 
	C279.912750,362.895477 279.564087,360.311066 278.722717,356.922974 
	C269.577911,320.097290 260.642029,283.219818 251.525208,246.387131 
	C246.369156,225.556244 240.984207,204.781998 235.695587,183.983948 
	C235.532028,183.340744 235.480515,182.524551 235.059723,182.113678 
	C231.044724,178.193207 228.290817,173.383392 225.678207,167.815933 
	C216.021912,175.883301 208.180573,185.042862 198.560318,190.527878 
	C198.560318,201.399521 198.392639,212.039398 198.629059,222.670303 
	C198.752548,228.223450 203.298080,232.492844 203.749725,238.123245 
	C203.921234,240.261398 204.816574,242.528091 204.155701,244.524857 
	C203.075623,247.788208 204.365692,250.391663 205.593704,253.101288 
	C212.501877,268.343994 215.323166,284.469940 216.077774,301.059204 
	C216.283707,305.586273 215.277206,309.650848 212.071045,312.917480 
	C214.514282,319.295959 217.133987,325.534698 214.425568,331.856720 
	C254.638458,367.191772 292.807800,404.445374 332.484833,441.194183 
	C328.994934,442.991333 326.872162,441.478027 324.840942,440.427917 
	C315.450439,435.573395 307.335388,428.903076 299.243896,422.209747 
	C297.587311,420.839386 295.933319,419.465912 293.868683,417.754456 
	C290.932678,423.897827 286.530884,420.302887 281.393951,419.466980 
	C284.271423,423.116425 286.550476,426.012909 288.837280,428.903320 
	C289.457458,429.687256 290.211426,430.387909 290.711670,431.239716 
	C291.906677,433.274506 294.593689,435.513367 292.195282,437.754974 
	C289.976196,439.828949 287.872406,437.213928 286.188782,435.820709 
	C266.406738,419.450073 248.076202,401.478333 229.233856,384.069489 
	C211.731644,367.898743 194.359299,351.592896 177.825516,334.426819 
	C175.490387,332.002380 171.628860,330.170105 172.902435,325.410004 
	C173.139328,324.524597 171.340103,323.012268 170.356949,321.898407 
	C167.691299,318.878418 166.469910,315.458649 166.633408,311.375824 
	C166.908218,304.514069 170.666550,302.556488 176.895340,306.250732 
	C176.780853,307.734283 175.138382,307.496033 174.458054,308.383789 
	C173.783859,309.263489 173.327530,310.121399 174.087433,311.053894 
	C174.582932,311.661926 175.278641,312.312225 175.996048,312.487457 
	C177.169464,312.774017 177.840851,311.857513 178.095490,310.830261 
	C179.846939,303.764648 183.541565,297.352478 181.499542,289.251007 
	C179.494675,281.296875 179.624115,272.803314 175.627228,266.022644 
	C175.317719,268.982849 175.043030,269.124786 176.079910,271.131592 
	C179.920502,278.564758 178.074478,286.505127 178.241898,294.227386 
	C178.333527,298.453217 174.066406,300.432220 169.277893,298.742798 
	C165.030396,297.244202 161.804306,294.207642 159.364395,290.626099 
	C151.710205,279.390564 140.290665,272.884521 129.040161,265.979828 
	C129.973114,269.418091 132.131531,271.953857 134.688293,274.274750 
	C143.445740,282.224243 152.175339,290.204620 160.877823,298.214203 
	C161.813583,299.075470 163.105484,299.780334 163.153992,302.434235 
	C151.793991,296.191803 142.888763,286.874542 131.157822,281.731415 
	C129.471558,286.148102 133.413437,287.814484 133.601486,290.867401 
	C133.165512,290.949524 132.541489,291.258514 132.328903,291.079346 
	C125.589394,285.398956 118.507065,280.016205 113.408333,272.704346 
	C109.230087,266.712524 109.918724,263.397888 115.971161,257.371643 
	C113.840736,253.894577 109.942207,252.376663 107.114914,249.680206 
	C103.096619,245.847824 99.928032,241.731964 101.571411,235.671173 
	C103.376976,229.012283 109.014671,226.970993 114.648010,230.989578 
	C116.714661,232.463837 118.531082,234.274445 119.337662,236.707565 
	C122.839851,247.272018 130.143417,254.729095 138.439438,261.749786 
	C144.063416,266.509155 150.130295,270.459351 156.271042,274.371246 
	C158.023224,275.487457 159.954834,274.533417 159.666260,272.380035 
	C157.782227,258.322144 161.989304,244.142731 158.686554,230.124557 
	C156.893616,222.514664 155.563919,214.783463 153.472244,207.260742 
	C152.237808,202.821136 153.087173,199.191879 156.164612,196.311859 
	C158.942215,193.712433 158.904160,190.999420 158.257446,187.738373 
	C157.158157,182.195282 154.677109,176.325623 156.064529,171.054611 
	C157.934235,163.951294 155.537827,158.342133 153.599670,152.044800 
	C151.995361,146.832153 150.591324,141.143570 154.000305,135.630356 
	C155.455078,133.277588 153.516846,130.485825 153.320892,127.868919 
	C152.810349,121.050354 149.554214,114.508156 152.509872,107.325310 
	C154.045105,103.594337 149.476700,98.623947 145.994019,96.482124 
	C136.965561,90.929657 128.376083,95.948059 119.651062,96.800011 
	C114.537949,97.299278 109.520828,98.713242 104.429764,99.522064 
	C96.004036,100.860664 90.839272,98.350533 86.328300,91.167160 
	C85.043541,89.121284 84.432747,86.565208 81.623863,84.735947 
	C81.169853,89.209618 80.638794,93.257828 80.365967,97.323372 
	C78.605064,123.563049 76.956902,149.810379 75.160225,176.047546 
	C73.648163,198.128525 71.958542,220.197296 70.411407,242.275955 
	C70.111847,246.550888 69.515579,250.880157 73.986626,253.929245 
	C76.098869,255.369705 76.371124,257.859131 74.919647,259.555542 
	C84.486626,265.945679 92.020241,274.288391 100.981728,281.602936 
	C98.226707,283.015961 97.113129,281.343628 95.909836,280.479065 
	C89.010048,275.521729 81.986122,270.703491 75.415543,265.334778 
	C71.757317,262.345703 68.400223,259.059937 64.180038,256.788086 
	C62.383938,255.821182 61.361458,253.908157 60.921684,251.919846 
	C60.254856,248.904968 62.831181,249.115677 64.580200,248.348740 
	C66.565567,247.478149 66.542824,245.409454 66.635963,243.593658 
	C67.676277,223.312363 68.717438,203.031006 69.701393,182.746902 
	C71.201431,151.823853 72.255295,120.878372 74.500862,89.992882 
	C74.838737,85.345879 74.695061,80.665382 74.868431,76.003883 
	C74.915291,74.743690 74.695000,73.774254 73.713730,72.909538 
	C68.919907,68.685120 69.421028,63.127132 70.041435,57.606541 
	C70.202499,56.173336 70.526344,54.708004 72.103165,53.851391 
	C76.531380,51.445755 77.875099,47.579411 77.833763,42.658417 
	C77.782120,36.509869 78.420860,30.358034 78.650215,24.203470 
	C78.753441,21.433359 79.295891,18.880281 82.649910,19.148516 
	C86.049919,19.420431 87.443169,21.892136 87.186356,25.169773 
	C86.692566,31.471771 86.192635,37.775990 85.513763,44.059681 
	C85.158401,47.348995 85.012527,50.320187 88.252846,52.458492 
	C89.879059,53.531631 90.763390,55.555916 90.120522,57.320175 
	C87.941772,63.299507 92.214195,66.830231 95.704117,69.438011 
	C99.361427,72.170860 104.321327,73.739647 109.368942,72.153114 
	C116.476074,69.919250 123.905823,68.427826 129.272034,62.497589 
	C130.731537,60.884701 132.807602,60.024090 135.074326,60.934483 
	C136.161819,62.840034 133.490707,62.831684 133.651566,64.583755 
	C140.110703,61.776058 146.304077,61.377903 151.873306,67.439827 
	C152.406723,64.025139 149.628784,62.497272 149.464676,60.076256 
	C152.553238,58.470371 155.073563,60.717110 158.433105,60.826839 
	C157.793060,57.785202 156.258469,55.436375 153.818329,54.227852 
	C151.517548,53.088337 149.310501,54.497967 147.598969,56.263340 
	C145.338089,58.595329 142.421082,59.285801 139.902664,57.622723 
	C136.854095,55.609550 139.024323,52.871105 140.073151,50.513344 
	C140.748703,48.994675 141.555725,47.534477 142.289764,46.076000 
	C138.015930,41.630856 137.410767,33.325172 144.706070,26.166862 
	C151.883865,19.123859 165.829971,17.791861 172.450546,27.537468 
	C174.914032,31.163738 178.523132,32.718067 183.149170,32.804188 
	C191.134674,32.952850 194.707535,34.829231 197.695038,39.626724 
	C192.289932,41.378815 186.950348,42.939907 181.839493,45.130558 
	C176.467712,47.433052 174.333328,51.139427 174.079559,56.690620 
	C173.313248,73.453552 176.224258,89.856033 178.830688,106.642120 
	C178.993149,106.973869 178.980240,106.935036 178.980240,106.935036 
M109.769226,78.953423 
	C116.302757,76.895813 123.026817,75.666168 130.416306,75.001778 
	C128.838501,72.533279 127.032211,70.328941 125.544456,70.898018 
	C119.823860,73.086159 112.837173,72.930122 108.454422,79.331032 
	C102.277328,83.428848 98.963737,79.156746 95.740417,74.620773 
	C100.569633,87.475937 101.227837,87.916641 108.971169,83.807564 
	C108.971169,82.213799 108.971169,80.589226 109.769226,78.953423 
M188.450378,261.443268 
	C189.422165,259.712677 189.422165,259.712677 192.428680,260.819641 
	C191.484222,255.764969 187.249344,252.077118 186.571243,246.504028 
	C190.085434,247.318222 191.923843,250.545258 195.469406,249.988663 
	C196.426025,245.941071 193.675247,243.462677 191.673172,240.755829 
	C190.592194,239.294327 188.977127,238.130478 189.611969,235.985199 
	C190.732101,232.199951 188.945221,229.555618 186.047913,227.605820 
	C184.175003,226.345428 182.742096,225.301956 184.250412,222.885361 
	C184.821182,221.970917 184.739822,220.924728 184.269287,220.003006 
	C180.035538,211.709534 176.978790,202.982620 174.848343,193.910263 
	C175.302826,205.227997 177.367889,216.318481 178.861282,227.467438 
	C178.424774,227.558731 177.988281,227.650009 177.551788,227.741287 
	C176.380997,224.127441 175.210205,220.513580 174.039413,216.899734 
	C175.408981,234.567596 175.408981,234.567596 180.472580,238.488083 
	C176.681122,248.083755 183.109695,266.262360 193.060623,272.171936 
	C191.385284,268.337799 190.022110,265.218109 188.450378,261.443268 
M216.395538,82.085632 
	C217.232468,93.156265 218.620407,104.194016 218.342621,115.331245 
	C218.303833,116.885803 218.471680,118.526176 220.537277,118.551292 
	C222.620911,118.576630 222.776001,116.918266 222.781769,115.374443 
	C222.794159,112.054672 222.842484,108.729683 222.686691,105.415733 
	C222.344101,98.127808 222.067947,90.828575 221.403000,83.567070 
	C221.002548,79.194099 219.672424,78.761459 216.395538,82.085632 
M152.298157,50.601032 
	C156.981079,51.766586 160.611130,55.137901 165.521835,57.259933 
	C165.762573,53.474003 166.037888,50.019466 161.796768,49.480572 
	C157.948990,48.991653 155.061646,47.413437 152.534439,44.394184 
	C152.613617,46.621437 150.036575,48.197872 152.298157,50.601032 
M202.518524,313.167419 
	C200.856415,313.251343 199.068634,312.680267 196.863235,314.123566 
	C200.916443,315.391907 204.160004,315.038422 207.774994,314.359985 
	C207.202011,313.821899 207.005600,313.472900 206.772919,313.446747 
	C205.622757,313.317505 204.463013,313.273712 202.518524,313.167419 
M215.189362,346.339508 
	C215.634232,342.980652 213.988922,341.725983 210.461899,342.845306 
	C211.604782,344.331177 212.966263,345.461853 215.189362,346.339508 
z"/>
<path fill="#000000" opacity="1.000000" stroke="none" 
	d="
M299.992126,283.004852 
	C299.434052,281.109650 298.875977,279.214417 298.321991,277.333099 
	C295.892792,276.454895 294.437073,278.140808 292.869934,279.190735 
	C288.302917,282.250488 283.900818,285.563202 279.261597,288.504730 
	C277.521393,289.608124 275.233337,292.730591 273.395752,290.194336 
	C271.129486,287.066437 274.907349,285.701385 276.932770,284.308075 
	C283.793549,279.588470 290.755127,275.014893 297.696777,270.413574 
	C300.310669,268.680908 302.476532,266.270416 306.273804,264.841370 
	C313.727722,275.418030 321.249451,286.090942 329.089417,297.215393 
	C336.631653,289.269836 344.532990,280.945953 352.907501,272.123627 
	C347.525299,270.521576 343.149597,271.831268 338.779999,272.184906 
	C335.441223,272.455139 332.965759,272.126465 332.639038,267.792084 
	C332.313416,263.472900 334.589020,262.839417 338.013489,262.586365 
	C343.487396,262.181854 348.956757,261.594940 354.392334,260.830902 
	C358.669952,260.229614 363.485535,263.261810 367.222931,258.984131 
	C372.873627,261.867432 378.016663,257.849121 383.493866,257.677887 
	C392.782013,257.387512 402.031738,255.929733 411.303650,255.024323 
	C414.377808,254.724136 417.724457,253.661835 418.284637,258.744690 
	C418.757263,263.032867 418.250824,265.716125 413.088379,266.005157 
	C402.454712,266.600586 391.841766,267.563202 381.218872,268.355652 
	C379.084229,268.514893 376.967651,268.404358 374.618256,267.506256 
	C395.279236,305.974518 415.220581,344.620300 438.283051,381.783447 
	C434.606750,383.686371 433.523621,381.608826 432.212463,379.610870 
	C425.724182,369.723816 419.180267,359.873047 412.606476,350.042542 
	C411.824158,348.872589 411.346008,347.235992 408.771240,347.115570 
	C408.560608,354.535309 411.202667,361.563934 410.958679,369.092133 
	C402.745361,353.510284 394.532013,337.928406 386.318695,322.346558 
	C386.201080,328.301331 388.894318,333.243591 390.928497,338.366638 
	C394.861359,348.271545 399.082489,358.061707 403.082306,367.940613 
	C403.693634,369.450470 405.262634,371.474396 402.560486,372.595276 
	C400.349731,373.512329 399.130371,371.955444 398.279663,370.218536 
	C393.080688,359.603821 387.959381,348.950928 382.732880,338.349884 
	C377.652740,328.045624 373.028748,317.507050 367.086517,307.641724 
	C366.177612,306.132751 365.557159,304.339447 362.105438,303.274353 
	C367.527771,321.408783 374.871216,337.761597 380.319000,354.919159 
	C372.362610,346.713531 366.916382,336.445831 359.378906,327.738068 
	C356.756104,330.446198 358.288422,331.869720 358.867767,333.266357 
	C363.844818,345.264069 368.694763,357.321045 374.011383,369.167969 
	C375.952057,373.492401 373.929016,374.515442 370.646362,376.000885 
	C366.614349,377.825439 365.770325,375.490997 364.795776,372.532257 
	C362.035583,364.152069 359.223053,355.787933 356.302216,347.462708 
	C355.571564,345.380249 355.313293,342.838715 352.541626,341.725433 
	C349.389313,345.233002 353.175842,349.378998 351.541687,353.279480 
	C342.615631,348.249359 342.217804,337.005219 334.172424,331.589874 
	C335.645844,335.379211 337.115387,339.170074 338.594238,342.957275 
	C339.380920,344.971832 339.354584,346.932251 336.699249,346.907410 
	C328.251373,346.828461 319.557098,351.001434 311.191681,345.136566 
	C310.670532,343.824951 311.961884,342.795044 312.858276,341.668854 
	C322.610474,329.416199 332.397430,317.191193 342.133606,304.925842 
	C344.117004,302.427185 346.081757,300.244476 350.253815,303.312897 
	C352.635345,291.146240 359.316650,281.234253 362.476257,269.815765 
	C359.488525,269.205902 358.685089,271.221008 357.558594,272.462769 
	C339.202820,292.696533 320.837860,312.922760 302.640594,333.298584 
	C300.172424,336.062256 298.094971,338.064240 294.354492,335.422821 
	C293.887726,337.958771 295.640900,340.553467 292.551056,342.379486 
	C291.199463,338.549866 287.728394,338.241333 284.060730,337.784698 
	C284.567780,335.304321 285.376068,333.236481 282.755341,331.219330 
	C280.923279,329.809235 281.104065,326.550873 282.032898,324.118805 
	C286.962677,311.210541 291.972351,298.332642 297.005066,285.464050 
	C297.406006,284.438904 297.822327,283.204681 299.698242,283.425873 
	C301.690582,290.680725 304.586578,297.075714 307.283661,303.617371 
	C313.691254,300.298553 314.208191,298.368408 310.174255,293.895020 
	C306.846771,290.204956 303.391022,286.630524 299.992126,283.004852 
z"/>
<path fill="#000000" opacity="1.000000" stroke="none" 
	d="
M338.890320,244.795013 
	C361.776855,239.492432 384.246826,234.237946 406.726105,229.023422 
	C412.760712,227.623550 413.647217,228.405029 414.387512,234.391174 
	C414.757751,237.385010 413.593842,238.579803 410.824463,239.158905 
	C385.800568,244.391586 360.784119,249.660965 335.788422,255.026184 
	C332.517059,255.728348 330.934021,254.977997 330.119995,251.556747 
	C329.309967,248.152115 330.316437,246.495026 333.596344,245.883255 
	C335.230194,245.578491 336.850708,245.202072 338.890320,244.795013 
z"/>
<path fill="#000000" opacity="1.000000" stroke="none" 
	d="
M369.028442,214.968750 
	C379.682098,211.011597 390.003174,207.272385 400.240448,203.316391 
	C403.738800,201.964523 405.351715,202.931885 406.503876,206.404877 
	C407.623260,209.779282 407.709015,211.805099 403.655884,213.183853 
	C379.886627,221.269455 356.198395,229.593185 332.476196,237.817474 
	C329.995026,238.677673 327.532440,240.016357 325.880280,236.247269 
	C324.313904,232.673859 325.081299,230.840729 328.790314,229.533737 
	C342.121063,224.836212 355.378082,219.929428 369.028442,214.968750 
z"/>
<path fill="#000000" opacity="1.000000" stroke="none" 
	d="
M349.728821,209.806488 
	C341.501617,213.901306 333.618530,217.849854 325.709290,221.745285 
	C323.276642,222.943420 320.975128,224.199753 319.110016,220.542694 
	C317.326813,217.046310 318.669281,215.550369 321.683411,214.005432 
	C344.181915,202.473343 366.663574,190.906525 389.044128,179.148117 
	C392.830658,177.158722 394.261353,178.717453 395.985077,181.699463 
	C397.996490,185.179108 396.478424,186.805252 393.489014,188.267334 
	C378.996155,195.355713 364.535156,202.509293 349.728821,209.806488 
z"/>
<path fill="#000000" opacity="1.000000" stroke="none" 
	d="
M192.902985,361.085052 
	C184.781433,352.152435 176.886063,343.492035 168.990707,334.831635 
	C169.427307,334.403900 169.863922,333.976135 170.300522,333.548401 
	C200.930130,362.535034 231.559753,391.521667 262.384155,420.692627 
	C256.750488,423.106873 248.002991,421.468323 244.637604,417.780151 
	C227.472382,398.968628 210.299438,380.164185 192.902985,361.085052 
z"/>
<path fill="#000000" opacity="1.000000" stroke="none" 
	d="
M358.882294,167.848572 
	C364.532898,163.988739 369.959686,160.431641 375.217133,156.639832 
	C378.187500,154.497482 379.983612,154.904709 382.024078,158.012726 
	C384.015228,161.045654 383.286072,162.531021 380.520142,164.365036 
	C359.184204,178.512238 337.910370,192.753357 316.667297,207.039764 
	C314.043640,208.804214 312.437622,208.624191 310.572052,205.889679 
	C308.596497,202.993958 309.617035,201.492065 312.043030,199.842545 
	C327.579773,189.278259 343.077209,178.656158 358.882294,167.848572 
z"/>
<path fill="#000000" opacity="1.000000" stroke="none" 
	d="
M366.844421,139.787842 
	C351.612549,153.391296 336.487518,166.652420 321.362335,179.913391 
	C316.360382,184.298859 311.296112,188.615982 306.382355,193.098129 
	C303.967255,195.301132 302.192596,194.990540 300.166229,192.587875 
	C298.067413,190.099304 299.104736,188.572479 301.136566,186.782349 
	C320.107697,170.068085 339.021484,153.288803 357.964172,136.542236 
	C362.270355,132.735306 363.575287,133.175003 366.844421,139.787842 
z"/>
<path fill="#000000" opacity="1.000000" stroke="none" 
	d="
M329.739807,128.761505 
	C333.289093,124.769173 336.666321,121.097244 339.886993,117.292824 
	C341.688965,115.164284 343.250458,114.406937 345.640015,116.608246 
	C347.963165,118.748444 348.133148,120.405289 345.937378,122.834366 
	C330.445892,139.971909 315.059570,157.204483 299.647827,174.414032 
	C297.875214,176.393417 296.156616,178.421097 294.406097,180.420349 
	C292.850555,182.196899 291.363770,183.357605 288.995087,181.291168 
	C286.704865,179.293213 286.710663,177.620010 288.643341,175.436768 
	C297.016510,165.977844 305.313202,156.451279 313.654022,146.963669 
	C318.921875,140.971527 324.218536,135.004700 329.739807,128.761505 
z"/>
<path fill="#000000" opacity="1.000000" stroke="none" 
	d="
M284.090820,152.110321 
	C295.546722,135.325378 306.789948,118.830086 318.040161,102.339600 
	C319.544098,100.135109 320.809601,97.483040 324.229340,99.972389 
	C327.590332,102.418953 325.502594,104.580009 324.030273,106.730255 
	C309.931366,127.321259 295.804657,147.893234 281.680389,168.466858 
	C280.305969,170.468872 279.314453,173.205963 275.963440,171.015793 
	C272.607941,168.822708 274.086517,166.708588 275.740753,164.364853 
	C278.521667,160.424866 281.173950,156.394089 284.090820,152.110321 
z"/>
<path fill="#000000" opacity="1.000000" stroke="none" 
	d="
M288.709717,116.670074 
	C281.261932,131.215652 273.996185,145.437881 266.708588,159.648926 
	C265.630707,161.750824 264.643890,164.051315 261.480988,162.426788 
	C258.393311,160.840866 259.464325,158.684662 260.562683,156.542877 
	C272.252350,133.747833 283.963257,110.963669 295.655518,88.169960 
	C296.722443,86.089996 297.804321,84.387489 300.623779,85.769974 
	C303.712921,87.284714 302.828278,89.150658 301.619049,91.458717 
	C297.295105,99.712067 293.117554,108.042084 288.709717,116.670074 
z"/>
<path fill="#000000" opacity="1.000000" stroke="none" 
	d="
M217.177917,391.809326 
	C221.582138,395.897949 225.736298,399.732971 229.865936,403.594238 
	C230.065659,403.780914 230.049866,404.198090 230.129639,404.509247 
	C223.717422,406.520569 214.619995,403.816254 210.855545,398.737732 
	C203.717773,389.108398 196.579071,379.479523 189.507080,369.801941 
	C188.512283,368.440643 186.833527,367.261505 187.561554,364.217926 
	C197.614365,373.579681 207.268677,382.570312 217.177917,391.809326 
z"/>
<path fill="#000000" opacity="1.000000" stroke="none" 
	d="
M417.379211,292.534912 
	C409.232849,292.475281 401.460419,292.367615 393.710602,291.891754 
	C390.147186,291.673004 387.031219,287.230225 385.858948,281.480560 
	C388.682007,280.213104 391.675873,280.988342 394.556183,281.023956 
	C400.182526,281.093597 405.803528,281.546997 411.430237,281.649078 
	C419.759888,281.800140 421.287476,284.298676 417.379211,292.534912 
z"/>
<path fill="#000000" opacity="1.000000" stroke="none" 
	d="
M270.980408,96.850876 
	C267.388611,106.594856 263.927887,115.971794 260.467194,125.348740 
	C259.938751,125.239906 259.410309,125.131065 258.881866,125.022232 
	C260.853882,119.079948 258.018463,113.062447 260.554138,106.942696 
	C264.359192,97.759254 267.385437,88.255440 270.887817,78.942383 
	C271.627716,76.974953 272.011902,73.900856 275.489410,75.201843 
	C278.954285,76.498100 277.202301,78.878677 276.483948,80.972633 
	C274.708374,86.148247 272.904205,91.314079 270.980408,96.850876 
z"/>
<path fill="#000000" opacity="1.000000" stroke="none" 
	d="
M179.002792,106.991409 
	C179.351395,104.094879 179.690338,101.180817 180.095093,97.701103 
	C183.788757,101.046288 182.555145,105.951927 185.261795,109.169754 
	C186.734222,108.652336 185.767014,106.686653 187.641174,105.832695 
	C190.226807,111.478546 191.692520,117.557320 191.882477,123.583214 
	C192.004044,127.439438 187.182739,129.052887 184.304672,132.659744 
	C180.844971,124.158089 180.974258,115.707474 179.151550,107.292854 
	C178.980240,106.935036 178.993149,106.973869 179.002792,106.991409 
z"/>
<path fill="#000000" opacity="1.000000" stroke="none" 
	d="
M118.152451,141.775055 
	C111.197113,129.729965 104.430260,117.998543 97.388557,105.790604 
	C100.657852,105.237534 101.322800,107.202049 102.162827,108.603455 
	C112.675346,126.141472 123.147293,143.703857 133.589691,161.283737 
	C134.372620,162.601807 136.158157,164.384140 134.106903,165.570129 
	C131.784164,166.913147 131.103256,164.308228 130.254807,162.851654 
	C126.238556,155.956863 122.304375,149.014282 118.152451,141.775055 
z"/>
<path fill="#000000" opacity="1.000000" stroke="none" 
	d="
M147.453613,149.822021 
	C148.043228,152.586304 148.489304,154.984772 148.999161,157.726196 
	C145.150604,155.848434 124.064529,107.069489 124.940231,101.409622 
	C133.493896,116.897217 139.955521,133.391571 147.453613,149.822021 
z"/>
<path fill="#000000" opacity="1.000000" stroke="none" 
	d="
M107.275620,160.683563 
	C99.031845,149.827454 91.008392,139.254425 82.856483,128.512115 
	C85.268890,127.289459 85.819641,128.241455 86.417671,129.001160 
	C97.320930,142.852234 108.235832,156.694305 119.081482,170.590393 
	C120.010147,171.780243 121.943184,173.469666 120.172470,174.847809 
	C117.879181,176.632706 117.199966,173.761429 116.215446,172.512970 
	C113.229652,168.726715 110.391579,164.823990 107.275620,160.683563 
z"/>
<path fill="#000000" opacity="1.000000" stroke="none" 
	d="
M416.786255,310.237732 
	C416.719482,311.940887 416.557220,313.259613 416.327179,314.566345 
	C415.440948,319.600677 411.020111,321.278564 407.091827,318.084045 
	C405.478790,316.772339 401.987274,310.229370 401.211578,306.601044 
	C406.470093,308.205872 411.931030,306.764282 416.786255,310.237732 
z"/>
<path fill="#000000" opacity="1.000000" stroke="none" 
	d="
M48.463287,162.555664 
	C41.914299,157.016235 34.840294,152.652634 29.599384,146.057892 
	C42.237934,153.637787 53.475677,163.043106 64.886665,172.219482 
	C64.445923,172.849136 64.005180,173.478790 63.564434,174.108459 
	C58.623993,170.331848 53.683552,166.555237 48.463287,162.555664 
z"/>
<path fill="#000000" opacity="1.000000" stroke="none" 
	d="
M103.494019,179.533752 
	C105.167664,181.646545 108.120628,182.401535 107.982132,185.358871 
	C106.904289,186.745499 105.779640,186.402908 104.923416,185.504395 
	C96.982506,177.171127 88.375092,169.424713 81.190353,160.419815 
	C81.678734,159.947311 82.167114,159.474823 82.655495,159.002319 
	C89.516777,165.763962 96.378052,172.525589 103.494019,179.533752 
z"/>
<path fill="#000000" opacity="1.000000" stroke="none" 
	d="
M245.831818,70.223511 
	C246.494202,67.984337 247.537674,66.990723 249.628189,67.727684 
	C251.291412,68.314018 251.394211,69.659042 251.121689,70.989899 
	C249.964615,76.640434 248.709534,82.270912 246.910324,87.870338 
	C243.747787,82.250504 243.803864,76.493866 245.831818,70.223511 
z"/>
<path fill="#000000" opacity="1.000000" stroke="none" 
	d="
M247.873596,302.875397 
	C251.433884,301.020966 254.019638,297.961121 258.104462,297.661285 
	C257.722198,300.837891 244.076736,309.359741 237.202820,310.997803 
	C238.683624,308.055786 239.123428,307.719269 247.873596,302.875397 
z"/>
<path fill="#000000" opacity="1.000000" stroke="none" 
	d="
M82.432053,185.635544 
	C87.525307,189.776566 93.086205,192.896713 97.354225,197.531021 
	C95.644913,199.264542 94.706268,198.787537 93.918785,198.170013 
	C89.734924,194.889145 85.540337,191.618057 81.462181,188.208771 
	C80.302948,187.239655 78.260727,185.506989 82.432053,185.635544 
z"/>
<path fill="#000000" opacity="1.000000" stroke="none" 
	d="
M56.485035,132.515472 
	C59.774834,136.432541 64.108643,139.050552 65.709648,143.933426 
	C58.688103,138.852692 52.600296,132.893417 47.537132,125.870171 
	C51.768768,126.322021 53.379532,130.109131 56.485035,132.515472 
z"/>
<path fill="#000000" opacity="1.000000" stroke="none" 
	d="
M338.699280,282.852234 
	C337.238708,284.358704 336.211731,285.949402 333.821075,285.823914 
	C332.842194,283.403412 332.369232,280.976837 335.534668,280.006195 
	C336.911957,279.583862 340.065247,278.760803 338.699280,282.852234 
z"/>
</svg>